<svg xmlns="http://www.w3.org/2000/svg" xml:space="preserve" width="250" height="50"><defs><clipPath id="a" clipPathUnits="userSpaceOnUse"><path d="M75.88 199.35h99.1v15.08h-99.1v-15.08z"/></clipPath></defs><path d="M0 0h2.05v4.01H5.8V0h2.05v9.3H5.81V5.75H2.05V9.3H0V0z" style="fill:#0b0d0a;fill-opacity:1;fill-rule:nonzero;stroke:none" transform="matrix(2.2288 0 0 -2.2288 77.6 36.69)"/><g clip-path="url(#a)" transform="matrix(2.2288 0 0 -2.2288 -156.12 486.69)"><path d="M0 0c0-.4-.05-1.55-1.5-1.55-.6 0-1.13.17-1.13.86 0 .68.52.87 1.1.99C-.97.4-.32.42 0 .7V0zm-2.42 2.06c.06.73.52 1.02 1.22 1.02.65 0 1.2-.12 1.2-.92 0-.75-1.06-.71-2.19-.88-1.15-.16-2.3-.52-2.3-2.05 0-1.38 1.02-2.02 2.3-2.02.82 0 1.68.22 2.27.83.01-.22.06-.44.13-.65h1.88c-.17.28-.24.89-.24 1.5v3.5c0 1.63-1.62 1.92-2.96 1.92-1.51 0-3.06-.52-3.17-2.25h1.85" style="fill:#0b0d0a;fill-opacity:1;fill-rule:evenodd;stroke:none" transform="translate(117.7 204.5)"/><path d="M0 0h1.85v3.2h.03A2.4 2.4 0 0 1 3.9 2.2c1.97 0 2.96 1.68 2.96 3.48 0 1.92-.96 3.62-3.07 3.62-.83 0-1.56-.32-2-1.04h-.03v.86H0V0zm3.4 3.58c-1.2 0-1.61 1.05-1.61 2.14 0 1.1.39 2.18 1.6 2.18C4.58 7.9 5 6.8 5 5.72c0-1.1-.4-2.13-1.6-2.13" style="fill:#0b0d0a;fill-opacity:1;fill-rule:evenodd;stroke:none" transform="translate(120.14 199.53)"/><path d="M0 0c0-.4-.05-1.55-1.5-1.55-.6 0-1.13.17-1.13.86 0 .68.52.87 1.1.99C-.97.4-.32.42 0 .7V0zm-2.42 2.06c.06.73.52 1.02 1.22 1.02.65 0 1.2-.12 1.2-.92 0-.75-1.06-.71-2.19-.88-1.15-.16-2.3-.52-2.3-2.05 0-1.38 1.02-2.02 2.3-2.02.82 0 1.68.22 2.27.83.01-.22.06-.44.13-.65h1.88c-.17.28-.24.89-.24 1.5v3.5c0 1.63-1.62 1.92-2.96 1.92-1.51 0-3.06-.52-3.17-2.25h1.86" style="fill:#0b0d0a;fill-opacity:1;fill-rule:evenodd;stroke:none" transform="translate(131.73 204.5)"/><path d="M0 0h-1.76v-.9h-.03c-.44.78-1.12 1.08-2 1.08-1.9 0-2.9-1.59-2.9-3.33 0-1.86.86-3.4 2.88-3.4.81 0 1.62.34 2.02 1.05h.03v-.89c.01-.96-.46-1.67-1.49-1.67-.65 0-1.2.24-1.38.93h-1.84c.1-1.54 1.65-2.16 2.98-2.16C-.4-9.3 0-7.42 0-6.31V0zm-3.34-5.15c-1.13 0-1.5 1.06-1.5 2.02 0 1 .46 1.92 1.5 1.92 1.2 0 1.58-.98 1.58-2.08 0-.96-.52-1.86-1.58-1.86" style="fill:#0b0d0a;fill-opacity:1;fill-rule:evenodd;stroke:none" transform="translate(140.93 208.64)"/><path d="M141.44 206.25h3.92v-1.59h-3.93v1.6z" style="fill:#0b0d0a;fill-opacity:1;fill-rule:nonzero;stroke:none"/><path d="M0 0h6.58v1.72H2.05v7.59H0V0z" style="fill:#0b0d0a;fill-opacity:1;fill-rule:evenodd;stroke:none" transform="translate(145.86 201.9)"/><path d="M152.87 211.2h1.85v-9.3h-1.85v9.3z" style="fill:#0b0d0a;fill-opacity:1;fill-rule:nonzero;stroke:none"/><path d="M0 0c0-2.14 1.37-3.55 3.48-3.55 2.13 0 3.5 1.41 3.5 3.55 0 2.15-1.37 3.56-3.5 3.56C1.37 3.56 0 2.16 0 0m1.85 0c0 1.08.38 2.16 1.63 2.16 1.27 0 1.64-1.08 1.64-2.16 0-1.07-.37-2.15-1.64-2.15-1.25 0-1.63 1.08-1.63 2.15" style="fill:#0b0d0a;fill-opacity:1;fill-rule:evenodd;stroke:none" transform="translate(155.14 205.26)"/><path d="M0 0h-1.92l-1.47-4.61h-.03L-4.94 0h-1.98l2.37-6.32c.2-.54 0-1.2-.64-1.27-.36-.01-.73.04-1.08.07v-1.53c.38-.04.75-.06 1.13-.06 1.28 0 1.92.44 2.32 1.52L0 0" style="fill:#0b0d0a;fill-opacity:1;fill-rule:evenodd;stroke:none" transform="translate(168.62 208.64)"/><path d="M0 0h1.76v9.3H-.09V5.93h-.03.02c-.43.66-1.22 1-2.01 1-1.98 0-2.99-1.68-2.99-3.5 0-1.86 1-3.6 3.03-3.6.86 0 1.61.31 2.04 1.04H0V0zm-.03 3.39c0-1.1-.36-2.18-1.59-2.18-1.14 0-1.63 1.11-1.63 2.17 0 1.1.42 2.15 1.63 2.15 1.2 0 1.6-1.05 1.6-2.14" style="fill:#0b0d0a;fill-opacity:1;fill-rule:evenodd;stroke:none" transform="translate(173.22 201.9)"/><path d="M0 0h6.56L2.34-6.93h1.3L7.83 0h6.78l-4.19-6.8h4.44l-1.83-3.37h-4.7l3.67-4.7H5.22l-3.39 4.7H.53l3.37-4.7h-6.51L-6.27-9.9 0 0z" style="fill:#023573;fill-opacity:1;fill-rule:evenodd;stroke:none" transform="translate(82.15 214.43)"/></g></svg>