<svg xmlns="http://www.w3.org/2000/svg" width="209" height="68" fill="none"><g style="mix-blend-mode:plus-darker"><path fill="#3D3D3D" d="M66.17 43.04H70v-7.48H77v7.48h3.81V25.7h-3.81v6.65h-7.02V25.7h-3.82v17.34Z"/><mask id="a" width="185" height="29" x="12" y="19" maskUnits="userSpaceOnUse" style="mask-type:luminance"><path fill="#fff" d="M12.17 47.8h184.66V19.69H12.17v28.1Z"/></mask><g fill="#3D3D3D" mask="url(#a)"><path fill-rule="evenodd" d="M90.08 38.18c0 .75-.1 2.9-2.8 2.9-1.11 0-2.1-.32-2.1-1.61 0-1.26.96-1.63 2.03-1.85 1.07-.2 2.29-.22 2.87-.73v1.3Zm-4.52-3.83c.12-1.37.97-1.9 2.28-1.9 1.22 0 2.24.22 2.24 1.7 0 1.4-1.97 1.34-4.08 1.65-2.14.3-4.28.97-4.28 3.81 0 2.58 1.9 3.77 4.28 3.77 1.53 0 3.13-.41 4.22-1.55.03.4.13.82.25 1.2h3.5c-.32-.5-.44-1.64-.44-2.78V33.7c0-3-3.01-3.57-5.52-3.57-2.81 0-5.7.97-5.9 4.2h3.45ZM94.65 47.46h3.45V41.5h.05a4.46 4.46 0 0 0 3.76 1.89c3.67 0 5.52-3.13 5.52-6.49 0-3.57-1.78-6.75-5.7-6.75-1.56 0-2.93.6-3.75 1.95h-.05v-1.6h-3.28v16.97Zm6.34-6.68c-2.23 0-3.01-1.94-3.01-3.98s.73-4.06 2.99-4.06c2.2 0 3 2.07 3 4.06 0 2.04-.72 3.98-2.98 3.98ZM116.25 38.18c0 .75-.1 2.9-2.8 2.9-1.12 0-2.11-.32-2.11-1.61 0-1.26.97-1.63 2.04-1.85 1.07-.2 2.28-.22 2.87-.73v1.3Zm-4.52-3.83c.12-1.37.97-1.9 2.28-1.9 1.21 0 2.23.22 2.23 1.7 0 1.4-1.96 1.34-4.08 1.65-2.13.3-4.27.97-4.27 3.81 0 2.58 1.9 3.77 4.27 3.77 1.54 0 3.14-.41 4.23-1.55.02.4.12.82.24 1.2h3.5c-.31-.5-.44-1.64-.44-2.78V33.7c0-3-3-3.57-5.51-3.57-2.82 0-5.7.97-5.9 4.2h3.45ZM133.37 30.48h-3.28v1.68h-.04c-.83-1.46-2.1-2.02-3.75-2.02-3.52 0-5.39 2.97-5.39 6.22 0 3.45 1.6 6.31 5.37 6.31 1.5 0 3.01-.63 3.77-1.94h.04v1.65c.03 1.8-.84 3.11-2.76 3.11-1.22 0-2.27-.43-2.58-1.72h-3.42c.17 2.86 3.06 4.03 5.53 4.03 5.78 0 6.51-3.5 6.51-5.56V30.48Zm-6.22 9.6c-2.1 0-2.79-1.97-2.79-3.77 0-1.87.85-3.57 2.8-3.57 2.23 0 2.93 1.82 2.93 3.86 0 1.8-.97 3.48-2.94 3.48Z" clip-rule="evenodd"/><path d="M134.32 34.93h7.31v2.96h-7.31v-2.96Z"/><path fill-rule="evenodd" d="M142.56 43.04h12.27v-3.2h-8.46V25.7h-3.8v17.34Z" clip-rule="evenodd"/><path d="M155.63 25.7h3.45v17.34h-3.45V25.7Z"/><path fill-rule="evenodd" d="M159.86 36.77c0 3.99 2.55 6.61 6.48 6.61 3.97 0 6.52-2.62 6.52-6.6 0-4.02-2.56-6.64-6.52-6.64-3.93 0-6.48 2.62-6.48 6.63Zm3.45 0c0-2.01.7-4.03 3.03-4.03 2.36 0 3.07 2.02 3.07 4.03 0 2-.7 4.01-3.06 4.01-2.34 0-3.04-2.02-3.04-4Z" clip-rule="evenodd"/><path fill-rule="evenodd" d="M184.98 30.48h-3.58l-2.74 8.6h-.05l-2.84-8.6h-3.7l4.43 11.78c.39 1 0 2.24-1.2 2.36-.67.02-1.35-.07-2-.12v2.84c.7.07 1.4.12 2.1.12 2.38 0 3.58-.83 4.33-2.84l5.25-14.14ZM193.55 43.04h3.28V25.7h-3.45V32h-.05.02a4.4 4.4 0 0 0-3.74-1.87c-3.69 0-5.56 3.14-5.56 6.51 0 3.48 1.85 6.73 5.63 6.73 1.6 0 3.02-.58 3.82-1.94h.05v1.6Zm-.05-6.32c0 2.07-.68 4.06-2.96 4.06-2.14 0-3.04-2.06-3.04-4.03 0-2.07.78-4 3.04-4 2.23 0 2.96 1.93 2.96 3.97ZM23.86 19.69h12.23L28.21 32.6h2.44l7.8-12.92h12.63l-7.8 12.67h8.27l-3.4 6.28h-8.76l6.83 8.74H33.59l-6.32-8.74h-2.43l6.28 8.74H19l-6.83-9.22L23.86 19.7Z" clip-rule="evenodd"/></g></g></svg>