<svg xmlns="http://www.w3.org/2000/svg" width="210" height="68" fill="none"><g style="mix-blend-mode:plus-darker"><path fill="#3D3D3D" d="M172 44.61a4.8 4.8 0 0 1-1.85 1.03l-.72-.9c.25-.13.5-.28.72-.48.57-.49.85-1.17.85-2.03 0-.79-.28-1.47-.84-2.05a15 15 0 0 0-2.34-1.66l-2.05-1.29a7.32 7.32 0 0 1-1.49-1.18 3.7 3.7 0 0 1-1.02-2.52c0-1.22.4-2.23 1.21-3.04.8-.8 1.88-1.21 3.21-1.21.55 0 1.21.14 1.98.41.78.27 1.22.4 1.33.4.3 0 .5-.07.61-.21.12-.14.2-.34.27-.6h.5l.53 5.13h-.58c-.4-1.55-1.02-2.63-1.9-3.24a4.42 4.42 0 0 0-2.56-.91c-.66 0-1.24.2-1.73.58-.49.39-.73.93-.73 1.62 0 .62.19 1.15.56 1.58.38.45.97.92 1.76 1.4l2.12 1.31c1.32.82 2.25 1.57 2.8 2.25.53.69.8 1.5.8 2.45 0 1.26-.48 2.32-1.44 3.16Z"/><path fill="#fff" fill-rule="evenodd" d="M122.8 49.56s7.18-5.94 16.9-7.5c6.83-1.1 11.16-.16 16.1 1.72 5.6 2.12 7.33 3.6 10.28 4.05 2.95.47 5.72.07 5.72.07l-17.1-19.97s-3.72 1.92-8.51.76c-4.8-1.15-14-7.1-17.18-8.44-3.18-1.33-6.43-2.49-10.53-2.26-4.1.23-6.24.58-6.24.58" clip-rule="evenodd"/><mask id="a" width="64" height="33" x="110" y="17" maskUnits="userSpaceOnUse" style="mask-type:luminance"><path fill="#fff" d="M110.25 17.79h63.7v31.9h-63.7V17.8Z"/></mask><g mask="url(#a)"><path stroke="#3D3D3D" stroke-width="1.28" d="M122.8 49.56s7.18-5.94 16.9-7.5c6.83-1.1 11.16-.16 16.1 1.72 5.6 2.12 7.33 3.6 10.28 4.05 2.95.47 5.72.07 5.72.07l-17.1-19.97s-3.72 1.92-8.51.76c-4.8-1.15-14-7.1-17.18-8.44-3.18-1.33-6.43-2.49-10.53-2.26-4.1.23-6.24.58-6.24.58"/></g><path fill="#3D3D3D" fill-rule="evenodd" d="M145.03 34.18c-1.1-.14-4.81-.52-8.5.22-2.15.43-5.74 2.2-7.3 3.33-4.25 3.08-5.98 9.55-6.48 11.83l-11.07-31.27c.82.04 2.66.17 4.43.52 2.37.48 7.07 1.71 12.06 4.29 4.5 2.33 15.33 9.84 16.98 10.98 1.24.11 5.65.34 7.61-1.66 1.52-1.55 1.6-2.84 1.82-4.01l.08-.53 16.94 19.76c-2.3-.74-8.89-3-13.86-5.84a481.94 481.94 0 0 1-12.7-7.62Z" clip-rule="evenodd"/><path fill="#3D3D3D" d="M38.18 45.3c.83-.09 1.36-.27 1.6-.56.23-.3.35-.97.35-2.03v-8.16c0-.73-.11-1.2-.34-1.41-.23-.23-.75-.36-1.56-.4v-.37h3.97l4.65 10.13 4.44-10.13h4v.37c-.74.06-1.22.2-1.44.42-.21.21-.32.68-.32 1.39v8.93c0 .74.1 1.2.32 1.42.22.2.7.33 1.44.4v.36h-5.63v-.36c.81-.07 1.32-.21 1.51-.43.2-.23.3-.77.3-1.62v-9.02l-5.13 11.43h-.28L41.01 34.7v8c0 1.1.16 1.82.48 2.16.21.21.68.36 1.4.44v.36h-4.71M77.9 32.38v.37c-.77.06-1.27.19-1.5.4-.23.2-.35.67-.35 1.4v6.43c0 1.05.15 1.87.44 2.46.53 1.07 1.55 1.61 3.05 1.61 1.64 0 2.74-.55 3.3-1.65.31-.61.47-1.56.47-2.84v-5.23c0-1.09-.13-1.77-.4-2.05-.25-.28-.75-.46-1.48-.53v-.37h4.65v.37c-.78.09-1.29.28-1.53.57-.24.29-.36.96-.36 2.01v5.23c0 1.39-.2 2.47-.63 3.25-.79 1.43-2.28 2.14-4.47 2.14-2.18 0-3.65-.7-4.44-2.12a6.1 6.1 0 0 1-.63-3v-6.27c0-.74-.12-1.2-.35-1.4-.22-.21-.71-.35-1.47-.4v-.38"/><path fill="#3D3D3D" fill-rule="evenodd" d="m31.11 40.5-2.32-5.53-2.3 5.53h4.62Zm-8.67 5.16v-.36c.52-.06.9-.26 1.16-.59.26-.33.7-1.24 1.34-2.72l4.18-9.85h.4l5 11.38c.33.76.6 1.23.8 1.41.2.18.53.3 1 .37v.36h-5.1v-.36c.58-.05.96-.12 1.13-.19.17-.08.25-.26.25-.56a5.8 5.8 0 0 0-.37-1.3l-.83-1.94h-5.26c-.52 1.32-.84 2.13-.94 2.42-.1.29-.15.51-.15.68 0 .35.14.58.41.71.17.08.5.14.97.18v.36M66.54 44.35c.7-.4 1.04-1.17 1.04-2.3 0-1.12-.4-1.9-1.22-2.3a6.8 6.8 0 0 0-3.1-.62h-.58l-.38-.01v5c0 .35.1.57.3.68.2.1.65.14 1.36.14 1.03 0 1.88-.2 2.58-.6Zm-8.21.96c.81-.05 1.33-.18 1.57-.38s.36-.69.36-1.44v-8.93c0-.74-.12-1.22-.36-1.42-.24-.22-.76-.35-1.57-.39v-.37h5.63c1.6 0 2.88.26 3.82.77.95.52 1.43 1.41 1.43 2.67 0 .95-.33 1.67-1 2.16a4.7 4.7 0 0 1-1.67.7c.92.22 1.7.6 2.36 1.11.66.52.98 1.25.98 2.18 0 1.57-.72 2.65-2.17 3.24-.77.3-1.71.46-2.83.46h-6.55v-.36ZM65.89 38c.85-.4 1.28-1.1 1.28-2.1 0-1.2-.5-2.01-1.47-2.43a6.73 6.73 0 0 0-2.47-.35c-.42 0-.68.04-.78.11-.1.07-.15.27-.15.6v4.52l1.91-.03A4.23 4.23 0 0 0 65.9 38ZM94.82 38.34c1.07-.43 1.6-1.26 1.6-2.47 0-1.16-.47-1.96-1.43-2.38a5 5 0 0 0-2.03-.34c-.57 0-.92.04-1.05.12-.12.08-.18.27-.18.57v4.95a10.1 10.1 0 0 0 3.1-.45Zm-6.86 6.97c.77-.08 1.25-.23 1.44-.45.2-.23.29-.77.29-1.6v-8.7c0-.7-.11-1.17-.33-1.38-.2-.23-.67-.37-1.4-.43v-.37h5.56c1.16 0 2.12.15 2.9.44 1.46.56 2.2 1.58 2.2 3.07 0 1-.34 1.77-.99 2.3-.65.54-1.53.9-2.65 1.07l4.14 5.09c.26.31.51.54.77.68.25.14.58.24.98.28v.36h-3.24l-4.79-6.18-1.11.05v3.95c0 .75.1 1.22.33 1.43.23.2.72.32 1.48.39v.36h-5.58" clip-rule="evenodd"/><path fill="#3D3D3D" d="M111.27 32.47c.75.22 1.18.32 1.3.32.28 0 .48-.05.6-.17.12-.1.23-.26.31-.47h.45l.15 4.22h-.46a7.74 7.74 0 0 0-1.27-2.18 4.06 4.06 0 0 0-3.1-1.25c-1.28 0-2.42.5-3.4 1.47-.97.97-1.46 2.58-1.46 4.83 0 1.85.5 3.3 1.47 4.33a4.75 4.75 0 0 0 3.6 1.56 6.23 6.23 0 0 0 1.8-.28c.46-.16.76-.3.88-.4.12-.12.18-.3.18-.52v-3.2c0-.77-.11-1.26-.33-1.44-.22-.2-.7-.31-1.44-.36v-.37h5.12v.37c-.5.03-.82.12-.99.25-.27.2-.41.64-.41 1.3v3.94c0 .24-.58.55-1.74.95-1.15.39-2.26.58-3.32.58a7.4 7.4 0 0 1-4.96-1.71 6.33 6.33 0 0 1-2.23-5.08 7 7 0 0 1 1.78-4.8 6.57 6.57 0 0 1 5.17-2.21c.78 0 1.55.1 2.3.32ZM181.47 32.38v.37c-.78.05-1.28.18-1.5.4-.23.2-.35.67-.35 1.4v6.43c0 1.05.15 1.87.44 2.46.53 1.07 1.55 1.61 3.04 1.61 1.65 0 2.75-.55 3.31-1.65.31-.61.47-1.56.47-2.84v-5.23c0-1.1-.13-1.77-.4-2.05-.25-.28-.75-.46-1.48-.53v-.37h4.64v.37c-.77.09-1.28.27-1.52.57-.24.29-.36.96-.36 2v5.24c0 1.38-.2 2.47-.63 3.24-.79 1.43-2.28 2.15-4.48 2.15-2.17 0-3.65-.7-4.43-2.12a6.1 6.1 0 0 1-.64-3v-6.28c0-.73-.11-1.2-.34-1.4-.22-.2-.71-.34-1.47-.4v-.37M180.18 29.62a1.16 1.16 0 1 1 2.32 0 1.16 1.16 0 0 1-2.32 0ZM183.8 29.62a1.16 1.16 0 1 1 2.32 0 1.16 1.16 0 0 1-2.33 0Z"/><mask id="b" width="14" height="14" x="191" y="32" maskUnits="userSpaceOnUse" style="mask-type:luminance"><path fill="#fff" d="M191.26 32.33H205v13.5h-13.74v-13.5Z"/></mask><g mask="url(#b)"><path fill="#3D3D3D" fill-rule="evenodd" d="M195.59 44.78c.16.1.5.16 1 .16 1.56 0 2.86-.31 3.87-.93 1.56-.96 2.33-2.6 2.33-4.9 0-2.06-.64-3.6-1.92-4.65a6.75 6.75 0 0 0-4.37-1.33c-.44 0-.75.05-.91.14-.16.1-.24.32-.24.65v10.21c0 .33.08.55.24.65Zm-4.05.54c.74-.08 1.21-.2 1.44-.4.22-.18.33-.66.33-1.42v-8.93c0-.73-.1-1.2-.32-1.41-.22-.21-.7-.34-1.45-.4v-.37h5.42c1.82 0 3.37.3 4.63.9 2.27 1.08 3.41 3.01 3.41 5.8 0 1-.2 1.94-.62 2.85a6.22 6.22 0 0 1-3.47 3.18c-1.03.37-2.29.56-3.78.56h-5.59" clip-rule="evenodd"/></g><path fill="#3D3D3D" d="M5 45.24c.9-.1 1.48-.27 1.7-.5.23-.24.35-.87.35-1.88V32.77c0-.83-.13-1.38-.39-1.62-.25-.26-.8-.41-1.66-.47v-.43h6.47v.43c-.85.06-1.4.21-1.67.47-.25.24-.38.79-.38 1.62v4.54h7.06v-4.54c0-.83-.13-1.38-.38-1.62-.25-.26-.8-.41-1.67-.47v-.43h6.48v.43c-.86.06-1.42.21-1.68.47-.25.24-.37.79-.37 1.62v10.36c0 .85.12 1.4.37 1.64.26.24.82.4 1.68.47v.42h-6.48v-.42c.92-.1 1.49-.26 1.7-.5.24-.24.35-.87.35-1.88v-4.53H9.42v4.8c0 .85.13 1.4.38 1.64.26.25.82.4 1.68.47v.42H5"/></g></svg>