<svg xmlns="http://www.w3.org/2000/svg" width="770.24" height="122.88" viewBox="0 0 577.68 92.16"><defs><clipPath id="a"><path d="M304 0h184v92.16H304Zm0 0"/></clipPath><clipPath id="b"><path d="M538 42h39.68v39H538Zm0 0"/></clipPath></defs><path d="M482.37 77.48a13.86 13.86 0 0 1-5.34 2.96l-2.1-2.62a8.33 8.33 0 0 0 2.1-1.37c1.63-1.4 2.45-3.36 2.45-5.87 0-2.27-.82-4.24-2.45-5.92-1.07-1.06-3.3-2.66-6.73-4.79l-5.94-3.7a21.26 21.26 0 0 1-4.29-3.44 10.67 10.67 0 0 1-2.96-7.28 11.9 11.9 0 0 1 3.5-8.77c2.34-2.33 5.43-3.5 9.28-3.5 1.59 0 3.49.4 5.71 1.2 2.25.76 3.53 1.15 3.85 1.15.86 0 1.44-.2 1.76-.61.34-.41.6-.99.79-1.74h1.43L484.95 48h-1.66c-1.14-4.46-2.96-7.58-5.48-9.35-2.49-1.76-4.96-2.65-7.4-2.65-1.91 0-3.58.57-5 1.7a5.62 5.62 0 0 0-2.11 4.66c0 1.8.54 3.32 1.63 4.59a21 21 0 0 0 5.07 4.04l6.11 3.78c3.83 2.35 6.53 4.52 8.1 6.49 1.53 2 2.3 4.35 2.3 7.07 0 3.65-1.38 6.7-4.14 9.15" style="stroke:none;fill-rule:nonzero;fill:#2d3a66;fill-opacity:1"/><path d="M340.26 91.77s20.74-17.16 48.8-21.66c19.72-3.17 32.23-.46 46.54 4.96 16.16 6.13 21.13 10.38 29.66 11.71 8.52 1.33 16.54.18 16.54.18l-49.4-57.68s-10.74 5.54-24.6 2.2c-13.85-3.33-40.43-20.52-49.61-24.37-9.2-3.86-18.56-7.2-30.43-6.53-11.85.67-18.01 1.67-18.01 1.67" style="stroke:none;fill-rule:evenodd;fill:#fff;fill-opacity:1"/><g clip-path="url(#a)"><path d="M3402.62 3.87s207.34 171.68 487.89 216.68c197.3 31.67 322.42 4.53 465.47-49.7 161.64-61.2 211.32-103.74 296.6-117.06 85.23-13.32 165.39-1.76 165.39-1.76l-493.9 576.76S4216.6 573.36 4078 606.72c-138.56 33.4-404.26 205.31-496.14 243.83-91.9 38.55-185.62 71.9-304.25 65.23-118.56-6.68-180.12-16.68-180.12-16.68" style="fill:none;stroke-width:10;stroke-linecap:butt;stroke-linejoin:miter;stroke:#2d3a66;stroke-opacity:1;stroke-miterlimit:4" transform="matrix(.1 0 0 -.1 0 92.16)"/></g><path d="M404.46 47.35c-3.16-.4-13.9-1.5-24.57.63-6.18 1.25-16.55 6.35-21.05 9.6-12.29 8.9-17.3 27.6-18.72 34.17l-31.99-90.3a94 94 0 0 1 12.8 1.5 138.54 138.54 0 0 1 34.82 12.38c13.04 6.72 44.3 28.42 49.04 31.73 3.59.31 16.33.98 22-4.8 4.37-4.47 4.64-8.2 5.26-11.59.1-.58.18-1.08.22-1.52l48.92 57.08c-6.62-2.15-25.65-8.66-40-16.89a1395.13 1395.13 0 0 1-36.73-21.99" style="stroke:none;fill-rule:evenodd;fill:#ee333a;fill-opacity:1"/><path d="M95.84 79.45c2.39-.24 3.93-.78 4.6-1.61.69-.85 1.04-2.8 1.04-5.87V48.41c0-2.1-.34-3.46-1-4.08-.66-.65-2.16-1.02-4.5-1.13v-1.08h11.47l13.42 29.26 12.83-29.26h11.56v1.08c-2.15.15-3.54.55-4.16 1.18-.62.62-.94 1.97-.94 4.03v25.8c0 2.12.32 3.48.94 4.08.62.59 2 .97 4.16 1.16v1.05H129v-1.05c2.35-.19 3.8-.6 4.37-1.24.58-.67.87-2.23.87-4.67V47.47L119.4 80.5h-.8l-14.58-31.67v23.14c0 3.18.46 5.24 1.39 6.21.6.62 1.95 1.05 4.05 1.27v1.05H95.84M210.56 42.14v1.07c-2.23.16-3.67.54-4.33 1.14-.67.58-1 1.94-1 4.08v18.55c0 3.05.42 5.41 1.25 7.11 1.55 3.1 4.48 4.65 8.81 4.65 4.74 0 7.92-1.59 9.55-4.76.9-1.77 1.36-4.51 1.36-8.21v-15.1c0-3.15-.38-5.13-1.14-5.92-.75-.82-2.19-1.33-4.3-1.54v-1.07h13.42v1.07c-2.24.25-3.72.8-4.41 1.65-.68.83-1.02 2.77-1.02 5.8v15.1c0 4.01-.62 7.13-1.85 9.38-2.26 4.14-6.57 6.2-12.91 6.2-6.27 0-10.54-2.03-12.8-6.11-1.23-2.2-1.85-5.08-1.85-8.68V48.43c0-2.12-.32-3.47-.99-4.05-.64-.6-2.06-1-4.25-1.17v-1.07" style="stroke:none;fill-rule:nonzero;fill:#2d3a66;fill-opacity:1"/><path d="M75.43 65.6 68.7 49.63 62.1 65.6ZM50.39 80.5v-1.05c1.49-.17 2.6-.73 3.34-1.7.75-.96 2.04-3.57 3.85-7.84l12.1-28.47h1.13l14.44 32.88c.97 2.2 1.73 3.56 2.3 4.08.59.52 1.56.86 2.92 1.05v1.05H75.7v-1.05c1.7-.15 2.8-.33 3.29-.53.48-.24.73-.77.73-1.62 0-.28-.1-.78-.28-1.5-.19-.72-.45-1.48-.79-2.27l-2.4-5.58h-15.2c-1.5 3.8-2.41 6.12-2.72 6.97a6.6 6.6 0 0 0-.42 1.98c0 .99.4 1.67 1.19 2.04.5.23 1.42.4 2.78.51v1.05M177.75 76.7c2-1.15 3-3.36 3-6.63 0-3.25-1.16-5.46-3.51-6.66-2.34-1.19-5.32-1.78-8.95-1.78h-1.7c-.23 0-.59 0-1.07-.03v14.45c0 1 .28 1.65.84 1.95.57.29 1.88.43 3.94.43 2.97 0 5.44-.57 7.45-1.73m-23.71 2.78c2.34-.14 3.85-.5 4.53-1.08.7-.6 1.05-2 1.06-4.16V48.43c0-2.14-.36-3.5-1.06-4.1-.68-.63-2.19-1-4.53-1.12v-1.07h16.26c4.65 0 8.33.75 11.05 2.24 2.74 1.5 4.1 4.06 4.1 7.7 0 2.74-.95 4.82-2.86 6.24-1.07.8-2.68 1.48-4.84 2 2.66.65 4.94 1.73 6.83 3.23 1.89 1.5 2.83 3.6 2.83 6.3 0 4.53-2.1 7.64-6.28 9.35a22.03 22.03 0 0 1-8.17 1.32h-18.92Zm21.84-21.1c2.46-1.14 3.69-3.17 3.69-6.1 0-3.46-1.43-5.78-4.25-7-1.57-.66-3.95-.99-7.14-.99-1.22 0-1.96.1-2.24.32-.28.2-.42.77-.42 1.7v13.08l5.52-.08c1.94-.04 3.55-.35 4.84-.94M259.45 59.37c3.08-1.27 4.62-3.65 4.62-7.14 0-3.36-1.38-5.66-4.14-6.88-1.47-.67-3.43-1-5.86-1-1.64 0-2.66.13-3.03.37-.36.23-.54.78-.54 1.64v14.3c4.17-.14 7.16-.57 8.95-1.3m-19.83 20.12c2.23-.21 3.62-.64 4.17-1.3.55-.66.82-2.2.82-4.62V48.43c0-2.04-.31-3.37-.93-3.99-.61-.64-1.96-1.05-4.06-1.22v-1.08h16.07c3.34 0 6.12.43 8.35 1.28 4.23 1.6 6.35 4.56 6.35 8.87 0 2.89-.95 5.1-2.84 6.65-1.87 1.55-4.42 2.57-7.65 3.06l11.96 14.7a7.97 7.97 0 0 0 2.2 1.99c.74.4 1.69.67 2.84.79v1.05h-9.35l-13.82-17.85-3.23.14v11.42c0 2.15.32 3.52.96 4.1.66.57 2.1.95 4.28 1.14v1.05h-16.12" style="stroke:none;fill-rule:evenodd;fill:#2d3a66;fill-opacity:1"/><path d="M306.95 42.4c2.17.62 3.41.94 3.73.94.83 0 1.42-.17 1.76-.5.36-.3.66-.77.9-1.38h1.28l.45 12.21h-1.33c-1.19-2.81-2.42-4.9-3.68-6.3-2.29-2.4-5.26-3.61-8.92-3.61-3.72 0-7 1.42-9.83 4.24-2.81 2.82-4.22 7.46-4.22 13.94 0 5.35 1.4 9.52 4.22 12.52 2.81 3 6.29 4.5 10.42 4.5a18.02 18.02 0 0 0 5.16-.81c1.38-.46 2.23-.84 2.57-1.17.34-.34.52-.82.52-1.47v-9.26c0-2.23-.33-3.62-.96-4.16-.63-.55-2-.9-4.14-1.02v-1.08h14.78v1.08c-1.43.09-2.38.32-2.86.7-.79.6-1.19 1.85-1.19 3.74v11.42c0 .68-1.67 1.59-5 2.72a29.66 29.66 0 0 1-9.62 1.7c-5.66 0-10.44-1.65-14.33-4.96-4.28-3.64-6.43-8.53-6.43-14.68 0-5.4 1.72-10.02 5.13-13.87 3.76-4.25 8.74-6.38 14.96-6.38 2.24 0 4.45.31 6.63.94M509.7 42.13v1.08c-2.22.15-3.67.53-4.33 1.13-.66.59-1 1.95-1 4.08v18.56c0 3.04.43 5.4 1.26 7.1 1.55 3.1 4.48 4.66 8.8 4.66 4.75 0 7.93-1.6 9.55-4.77.9-1.77 1.36-4.5 1.36-8.2V50.65c0-3.15-.38-5.12-1.13-5.92-.76-.81-2.2-1.32-4.3-1.53v-1.08h13.42v1.08c-2.25.25-3.72.8-4.42 1.64-.68.84-1.02 2.77-1.02 5.81v15.1c0 4-.6 7.13-1.84 9.38-2.26 4.13-6.57 6.2-12.92 6.2-6.27 0-10.53-2.04-12.8-6.12-1.23-2.19-1.85-5.08-1.85-8.67V48.42c0-2.11-.32-3.46-.98-4.05-.64-.6-2.06-.99-4.25-1.16v-1.08M506 34.16a3.36 3.36 0 1 1 6.7 0 3.36 3.36 0 0 1-6.7 0M516.43 34.16a3.36 3.36 0 1 1 6.71 0 3.36 3.36 0 0 1-6.71 0" style="stroke:none;fill-rule:nonzero;fill:#2d3a66;fill-opacity:1"/><g clip-path="url(#b)"><path d="M550.48 77.96c.48.3 1.44.45 2.9.45 4.53 0 8.26-.9 11.19-2.69 4.5-2.76 6.73-7.47 6.73-14.14 0-5.94-1.84-10.42-5.55-13.43-3.17-2.56-7.37-3.84-12.6-3.85-1.3 0-2.19.15-2.67.43-.44.28-.67.9-.67 1.86v29.5c0 .94.23 1.57.67 1.87m-11.66 1.56c2.11-.23 3.49-.6 4.13-1.14.64-.55.96-1.91.96-4.1V48.46c0-2.11-.3-3.47-.93-4.08-.62-.6-2.02-.98-4.16-1.14v-1.07h15.63c5.27 0 9.73.87 13.37 2.6 6.57 3.12 9.86 8.7 9.86 16.72 0 2.9-.59 5.64-1.78 8.25a16.84 16.84 0 0 1-5.33 6.6c-1.5 1.13-3.08 1.99-4.7 2.57-2.97 1.1-6.6 1.64-10.94 1.64h-16.11" style="stroke:none;fill-rule:evenodd;fill:#2d3a66;fill-opacity:1"/></g><path d="M0 79.29c2.63-.29 4.27-.77 4.93-1.45.66-.7.99-2.5.99-5.42V43.27c0-2.41-.38-3.98-1.12-4.7-.73-.72-2.32-1.17-4.8-1.35v-1.24h18.7v1.24c-2.48.18-4.08.63-4.84 1.35-.73.72-1.1 2.29-1.1 4.7v13.11h20.4V43.27c0-2.41-.37-3.98-1.09-4.7-.72-.72-2.33-1.17-4.83-1.35v-1.24h18.7v1.24c-2.48.18-4.08.63-4.83 1.35-.73.72-1.09 2.29-1.09 4.7V73.2c0 2.46.36 4.04 1.09 4.74.75.68 2.35 1.13 4.83 1.35v1.21h-18.7v-1.21c2.65-.27 4.3-.75 4.93-1.45.66-.7.98-2.5.98-5.42V59.34h-20.4V73.2c0 2.46.38 4.04 1.11 4.74.76.7 2.36 1.15 4.84 1.35v1.21H0" style="stroke:none;fill-rule:nonzero;fill:#2d3a66;fill-opacity:1"/></svg>