<svg xmlns="http://www.w3.org/2000/svg" class="ign-logo" viewBox="0 0 170 38"><g fill="none" fill-rule="evenodd"><g fill="#FFF"><path d="M51.728 27.011V10.557h4.411l5.59 12.296 5.507-12.296h4.226v16.454h-3.638V17.44l-4.197 9.572H59.75l-4.25-9.52v9.52h-3.77M86.102 20.64l-3.044-6.974-2.974 6.975h6.018Zm-8.739 6.371h-4.278l7.354-16.453h5.267l7.406 16.453H88.89l-1.457-3.277h-8.656l-1.413 3.277ZM94.818 27.011V10.557h15.83v3.29H98.64v3.268h10.293v3.211H98.641v3.394h12.035v3.291H94.818M117.632 18.113h8.317v-4.265h-8.317v4.265Zm-3.877 8.898V10.558h13.246c1.77 0 2.797 1.016 2.797 2.76v5.527c0 1.271-1.135 2.42-3.335 2.42-.124.007-.251 0-.382 0l3.856 5.746h-4.256l-3.655-5.626h-4.394v5.626h-3.877ZM136.773 27.02h-1.313c-1.713 0-2.538-.982-2.538-2.413v-2.15h3.85v1.274h8.183v-3.368h-9.386c-1.498 0-2.577-1-2.577-2.388v-4.884c0-1.478 1.174-2.523 2.604-2.523h10.728c1.45 0 2.454 1.074 2.454 2.627v1.963h-3.823v-1.3h-8.182v3.24h9.358c1.381 0 2.647.908 2.647 2.654v4.696c0 1.6-.894 2.573-2.566 2.573h-9.44M152.472 27.02V10.566h3.931v6.581l7.486-6.58h5.322l-8.93 7.642 9.251 8.811h-5.509l-7.62-7.484v7.484h-3.93" class="ign-logo__fill"/></g><g fill-rule="nonzero"><path fill="#42B0D5" d="M4.285 0h27.062c2.37 0 4.291 1.91 4.291 4.268v28.864c0 2.357-1.921 4.268-4.291 4.268H4.285C1.918 37.4 0 35.492 0 33.14V4.274a4.249 4.249 0 0 1 1.25-3.022A4.297 4.297 0 0 1 4.285 0Z"/><path fill="#FFF" d="m23.496 17.651 7.035-8.737-.02-.027-10.166 4.844-2.509-10.885h-.041l-2.509 10.885L5.121 8.887l-.021.027 7.035 8.737L1.97 22.495l.013.034h11.279l-2.509 10.892.028.013 7.035-8.736 7.035 8.736.034-.02-2.515-10.885h11.285l.007-.034z"/></g></g></svg>