<svg xmlns="http://www.w3.org/2000/svg" width="210" height="68" fill="none"><g fill-rule="evenodd" clip-rule="evenodd" style="mix-blend-mode:plus-darker"><path fill="#000" d="M68.36 42.9V24.59h4.88l6.18 13.7 6.09-13.7h4.67v18.33h-4.02V32.25L81.52 42.9h-4.3l-4.69-10.6v10.6h-4.17ZM106.36 35.81 103 28.04l-3.3 7.77h6.66Zm-9.66 7.1h-4.73l8.13-18.33h5.82l8.2 18.33h-4.68l-1.6-3.65h-9.58L96.7 42.9ZM116 42.9V24.59h17.5v3.67h-13.28v3.64h11.38v3.57h-11.38v3.78h13.3v3.67H116ZM141.22 33h9.2v-4.75h-9.2V33Zm-4.29 9.9V24.59h14.65c1.95 0 3.09 1.13 3.09 3.08v6.15c0 1.42-1.26 2.7-3.69 2.7h-.42l4.26 6.4h-4.7l-4.04-6.27h-4.86v6.27h-4.29ZM162.38 42.92h-1.45c-1.9 0-2.8-1.1-2.8-2.69v-2.4h4.25v1.43h9.04V35.5h-10.37c-1.66 0-2.85-1.11-2.85-2.66V27.4a2.8 2.8 0 0 1 2.88-2.8h11.86c1.6 0 2.71 1.19 2.71 2.92v2.19h-4.23v-1.45h-9.04v3.6h10.34c1.53 0 2.93 1.02 2.93 2.96v5.23c0 1.79-.99 2.87-2.84 2.87h-10.43ZM179.73 42.92V24.59h4.35v7.33l8.28-7.33h5.88l-9.88 8.51 10.23 9.82h-6.09l-8.42-8.34v8.34h-4.35ZM50.83 49.8a4.74 4.74 0 0 1-4.74 4.75H16.15a4.74 4.74 0 0 1-4.74-4.75V17.7a4.74 4.74 0 0 1 4.74-4.75h29.94a4.74 4.74 0 0 1 4.74 4.75V49.8Z"/><path fill="#FFFFFE" d="m37.4 32.66 7.78-9.75-.02-.03-11.25 5.41-2.77-12.17h-.04L28.32 28.3l-11.24-5.41-.03.03 7.78 9.75-11.24 5.42.01.04h12.48L23.3 50.28l.04.02 7.78-9.76 7.78 9.76.03-.02-2.77-12.16h12.48v-.04L37.4 32.66Z"/></g></svg>