<svg xmlns="http://www.w3.org/2000/svg" width="869" height="768" viewBox="-1.28 -1.28 51.1 45.16"><path d="M20.9 0c-2.29 0-4.43.9-6.04 2.47V.52H6.27V22.26h-.03c-3.02 0-5.3-1.29-5.3-1.29L0 22.71s2.52 1.54 6.27 1.54c3.86 0 5.47-1.7 9.01-1.7 3.58 0 4.8 1.7 9 1.7 4.18 0 5.44-1.7 9.02-1.7 3.57 0 5.15 1.7 9 1.7 3.54 0 6.24-1.57 6.24-1.57l-.94-1.74s-2.28 1.32-5.3 1.32V8.48a8.5 8.5 0 0 0-14.92-5.55A8.51 8.51 0 0 0 20.88 0Zm-3.41 7.26c1.3 0 2.35 1.04 2.35 2.33v11.8a13.95 13.95 0 0 0-4.56-.84h-.1V9.6c0-1.29 1.05-2.33 2.31-2.33zm13.6 0c1.3 0 2.31 1.04 2.31 2.33v10.96h-.1c-1.9 0-3.23.42-4.56.84V9.6c0-1.29 1.05-2.33 2.35-2.33zm-15.88 16.5c-2.28 0-4.17.6-5.57 1.54a5.17 5.17 0 0 0-2.42 4.43c0 2.69 1.96 4.3 6.6 5.4 2.65.64 3.18.85 3.22 1.61 0 .25-.08.42-.25.6-.39.38-1.05.52-1.58.52-.2 0-.8-.03-1.36-.31a1.9 1.9 0 0 1-.95-1.4l-6.27.04c0 1.81 1.01 3.45 2.87 4.7a10.68 10.68 0 0 0 5.6 1.72c4.18 0 8.66-2.03 8.66-6.42 0-3.39-3.22-4.75-4.2-5.06-.95-.35-2.21-.6-3.33-.84-.8-.18-1.54-.32-2.1-.5-.43-.1-.67-.41-.67-.8 0-1 1.19-1.1 1.72-1.1 1.08 0 1.96.76 1.96 1.66h6.1c0-3.97-4.17-5.79-8.03-5.79zm18.09.04c-2.84 0-4.9.94-6.56 2.75a9.73 9.73 0 0 0-2.35 6.67c0 2.58.81 4.96 2.35 6.63a8.2 8.2 0 0 0 6.52 2.76c2.6 0 4.95-.7 6.42-2.13 1.33-1.26 2.14-3.04 2.45-5.3l.04-.32H35.7l-.03.24c-.39 1.68-1.4 2.2-2.28 2.2-2 0-2.45-2.86-2.45-4.08 0-1.26.46-4.12 2.45-4.12.84 0 1.9.56 2.28 2.24l.03.2h6.46l-.04-.3c-.31-2.28-1.12-4.06-2.45-5.31-1.47-1.4-3.82-2.13-6.38-2.13z" style="fill:#000;fill-opacity:1;fill-rule:nonzero;stroke:none"/></svg>