<svg xmlns="http://www.w3.org/2000/svg" width="1122.52" height="793.707" viewBox="0 0 841.89 595.28"><path d="M692.379 319.723c-24.793 13.964-54.7 15.511-80.781 4.168-39.618-16.028-83.832-16.07-123.493-.172a156.524 156.524 0 0 1-60.585 11.258 156.736 156.736 0 0 1-60.63-11.258c-39.617-15.899-83.874-15.813-123.492.172-26.082 11.343-55.988 9.754-80.78-4.168l14.136-23.891a63.229 63.229 0 0 0 55.86 2.45V62.64h88.257v22.644a86.765 86.765 0 0 1 9.152-8.637c38.93-31.968 96.38-26.253 128.262 12.72 16.672-19.938 40.777-31.97 66.688-33.216 51.261-2.578 94.832 36.953 97.367 88.301v153.914a63.532 63.532 0 0 0 55.86-2.535Zm-308.215-20.239V158.59c-.3-17.403-14.61-31.281-32.012-30.98-14.996.257-27.757 11.128-30.379 25.91v130.324a252.607 252.607 0 0 1 62.391 15.64m149.102-16.5V156.957c-1.633-17.273-16.93-29.906-34.118-28.316-15.554 1.504-27.671 14.308-28.316 29.949v141.883c20.11-8.078 41.078-13.965 62.434-17.489m79.191 134.88c-.602-26.384-14.437-50.618-36.824-64.497-32.227-23.16-76.27-20.84-105.875 5.63-17.832 15.64-28.531 37.94-29.563 61.702-3.222 23.762-.43 48.04 8.035 70.469a84.183 84.183 0 0 0 49.157 44.473 77.781 77.781 0 0 0 64.754-3.996c28.316-13.364 47.351-40.864 49.972-72.102h-54.441c-3.48 11.344-9.625 20.453-17.317 25.566-17.402 11.559-37.855.043-45.675-25.566-7.778-25.652 0-55.73 17.36-67.246 17.444-11.516 37.855-.043 45.675 25.566ZM301.75 481.456c.215 6.402 4.168 12.031 10.055 14.48 9.84 4.04 20.84 4.04 30.722 0 5.887-2.406 9.84-8.078 10.098-14.48-.258-5.973-3.781-11.387-9.152-14.008a62.735 62.735 0 0 0-13.707-4.855c-6.145-1.375-12.332-2.75-18.52-3.996-3.223-.645-6.402-1.16-9.668-1.633a92.703 92.703 0 0 1-48.941-22.215 57.507 57.507 0 0 1-8.121-13.02c-12.547-28.144 0-61.187 28.101-73.777 34.16-15.21 73.09-15.598 107.551-1.117 20.625 7.262 34.59 26.726 34.89 48.64H356.02c-1.762-8.68-8.81-15.296-17.575-16.456a33.986 33.986 0 0 0-22.73 2.277c-8.078 3.48-12.117 12.633-9.238 20.926 4.425 7.648 12.074 12.847 20.796 14.05 16.63 2.278 33.043 6.145 49.028 11.344 6.789 1.332 13.234 4.168 18.863 8.164 5.371 4.125 9.883 9.239 13.406 15.04 15.813 26.081 7.477 59.984-18.52 75.757-31.796 15.942-68.534 18.992-102.437 8.332-25.695-4.812-44.258-27.242-44.172-53.41Zm0 0" style="stroke:none;fill-rule:nonzero;fill:#141b33;fill-opacity:1"/></svg>