<svg xmlns="http://www.w3.org/2000/svg" width="209" height="68" fill="none"><path fill="#000" d="M99.71 3.57c-3.23 0-6.25 1.29-8.54 3.5V4.32H79.01V35.1h-.05c-4.27 0-7.5-1.83-7.5-1.83l-1.33 2.47s3.57 2.18 8.88 2.18c5.46 0 7.74-2.42 12.76-2.42 5.06 0 6.8 2.42 12.75 2.42 5.91 0 7.7-2.42 12.76-2.42s7.3 2.42 12.76 2.42c5 0 8.83-2.23 8.83-2.23l-1.34-2.47s-3.22 1.88-7.5 1.88V15.58c0-6.62-5.4-12-12-12-3.58 0-6.85 1.48-9.14 4.14a12.06 12.06 0 0 0-9.18-4.15ZM94.9 13.85a3.32 3.32 0 0 1 3.32 3.31v16.7a19.75 19.75 0 0 0-6.45-1.18h-.15V17.16a3.3 3.3 0 0 1 3.28-3.31Zm19.25 0a3.28 3.28 0 0 1 3.28 3.31v15.52h-.15c-2.68 0-4.56.6-6.45 1.19v-16.7a3.32 3.32 0 0 1 3.32-3.32ZM91.67 37.22c-3.23 0-5.9.85-7.9 2.18a7.32 7.32 0 0 0-3.42 6.28c0 3.8 2.78 6.07 9.33 7.66 3.78.89 4.52 1.18 4.57 2.27 0 .35-.1.6-.35.84-.54.54-1.49.74-2.23.74-.3 0-1.14-.05-1.94-.44a2.7 2.7 0 0 1-1.34-1.98l-8.88.05c0 2.57 1.44 4.89 4.07 6.67a15.13 15.13 0 0 0 7.94 2.42c5.9 0 12.26-2.86 12.26-9.1 0-4.79-4.57-6.71-5.96-7.16-1.34-.5-3.12-.84-4.71-1.18-1.14-.25-2.19-.45-2.98-.7-.6-.14-.94-.59-.94-1.13 0-1.44 1.68-1.58 2.43-1.58 1.54 0 2.78 1.08 2.78 2.37h8.64c0-5.64-5.91-8.2-11.37-8.2Zm25.61.05c-4.02 0-6.95 1.34-9.28 3.91-2.18 2.37-3.33 5.73-3.33 9.44 0 3.65 1.15 7.02 3.33 9.39 2.33 2.57 5.21 3.9 9.23 3.9 3.67 0 7-.99 9.09-3.01 1.88-1.78 3.03-4.3 3.47-7.51l.05-.45H120.7l-.04.35c-.55 2.37-1.99 3.11-3.23 3.11-2.83 0-3.48-4.05-3.48-5.78 0-1.78.65-5.83 3.48-5.83 1.19 0 2.68.79 3.23 3.16l.04.3H129.84l-.05-.45c-.44-3.21-1.59-5.73-3.47-7.51-2.09-1.98-5.42-3.02-9.04-3.02Z" style="mix-blend-mode:plus-darker"/></svg>