<svg xmlns="http://www.w3.org/2000/svg" xml:space="preserve" id="layer" x="0" y="0" style="enable-background:new -153-46 652 652" version="1.1" viewBox="-153 -46 652 652"><style>.st4{fill:#000}</style><path d="m-.6 282.7-17.9 4.9v-10c0-10.1-8.2-18.2-18.5-18.2-1.1 0-2.2.1-3.3.3 1.9-8.9 9.9-15.6 19.4-15.6 11 0 19.9 8.8 19.9 19.6l.4 19z" style="fill:url(#SVGID_2_)"/><path d="M-131.5 248.6v36.7h20.1v-14.4c0-10.5 8.7-19.2 19.4-19.2h.9c10.7 0 19.5 8.7 19.5 19.2v25.6c0 10.5-8.7 19.2-19.4 19.2h-2.7c-.4 0-.7 0-1-.1v17.6h38.8l.9-1.1V218.2l-.9-1.8-75.6 32.2z" style="fill:#000"/><path d="M-56.2 216.4v116.9H-17v-17.4c-.4 0-.7.1-1 .1-.4 0-.8 0-1.2-.1-.4 0-.9.1-1.2.1h-.9c-10.7 0-19.5-8.7-19.5-19.2V271c0-10.5 8.7-19.2 19.4-19.2h.9c2.5 0 4.8.5 7 1.3 7.2 2 12.4 8.5 12.4 16.2v16.1h20.6v-36.7l-75.7-32.3z" style="fill:#000"/><path d="M360.4 330.9c-9.2 0-18.2-3.5-23.4-9.1-7.3-7.7-10.5-16-10.5-27.7 0-7.7 1.7-14.6 4.8-19.4l.1-.2c2.4-3.9 6.8-9.5 16.1-13.8 3.9-1.8 8.7-2.8 13.4-2.8 5.5 0 8.4 1.1 12.6 2.9 10.5 4.5 14.5 11.1 15.7 13.3.1.2.2.3.2.4 2.3 3.7 5 9.4 5 19.7 0 11.2-3.8 21.5-10.2 27.6-6.6 6-14.3 9.1-23.8 9.1zm.2-63c-5.1 0-9.3 3.3-11.4 8.8-2.4 6.5-2.6 19.6-1.9 26.8v.2c.9 11.2 5.8 17.9 13.2 17.9 7.5 0 12.3-6.4 13-17.7v-.2c.6-7.7.4-19.3-1.7-26.5-1.5-5.7-5.9-9.3-11.2-9.3zM442.3 330c-1.1-.2-3.4-4.8-3.5-4.9-6-12-19.4-38.1-19.5-38.3l-.2-.4-.3-.2c-.1-.1-.4-.2-.8-.2-.5 0-.9.2-1.2.5-.6.7-.7 1.7-.7 2.4V317c.1 3.3.5 4.3 6.7 4.6.5 0 .8.1.9.1.1.2.1.7.1 1.1v6.7c0 .2-.4.4-1.2.5-.3 0-18.9 0-24.9.1h-.1c-.7 0-1.1-.1-1.2-.1V328.3c0-.9 0-4.9-.1-5.3 0-.5-.1-1.4.1-1.5 0 0 .1-.1.5-.1 5.9-.2 6.8-1.3 7.5-2.1.7-.9.7-1.9.6-2.4 0-.1.1-26.1 0-43.2 0-3.9-7-3.9-7.3-3.9-.3 0-1.6 0-1.7-.1 0-.1-.1-.2-.1-.5-.1-1.4-.1-3.6 0-7.6 0-.7.2-.8.3-.8h29c1.1 0 1.5 0 2.7 2.9 3.7 8.6 17.4 35.4 18 36.8.2.4.7 1.4 1.7 1.4.8 0 1.4-.7 1.6-1.7v-.2c0-1 .1-24.8 0-26.8-.1-2.1-.5-3.4-2.3-3.4h-6.1s-1 .1-1-.9V263c0-2.3-.2-2.2.9-2.2l1.6.1c.9.1 21.4-.1 24-.1 1.1 0 1.9-.1 2 .5l-.1 7.3s.1 1.1-.7 1.1h-5.9c-2.1.1-2.2 2.6-2.2 2.6l-.1 53.6v1.7s0 2.4-2.4 2.5c-.8-.1-14.3 0-14.6-.1zm-137.4.3c-3 0-18-.1-22-.1h-10.5c-.5 0-.8 0-1.1-.1-.1-.3-.1-.8-.1-1.7v-6.7c0-.7 0-.8.9-.8h.2c7 0 8.6-1.9 8.9-3l.1-.2-.1-46.4-1.2-.2c-.1 0-.7-.1-1.7-.1-2 0-5.7.5-7.9 3.9-1.8 2.6-2.6 6-2.6 11.7 0 .5-.1.8-.2.8h-.2l-.2-.1h-8c-.1 0-.3 0-.3-.8v-24.2c0-.5 0-.8.2-1 .1-.1.5-.5 2-.5h59c1.6 0 2.3.2 2.3 2.7v22c0 .6.1 1.3-.1 1.5-.1.1-.4.1-1.2.1h-6.7c-.3 0-1 0-1.2-.1 0-.1-.1-.3-.1-.7-.2-5.7-.5-9.3-3.4-12.9-1.9-2.3-4.8-2.8-6.8-2.8-1.1 0-1.8.1-1.9.1l-1.2.2v1.3c0 1.7-.2 43-.1 45 0 .7.3 1.9 2.4 2.7 1.3.5 3.1.8 5.4.8h1.2c.2 0 .6 0 .9.1 0 .1.1.2.1.5-.1 3.3-.1 4.5 0 6.2v2.4c-.1 0-.4.1-.7.1-1.1.3-2.6.3-4.1.3zm-88.2 0c-.6 0-2.4 0-2.6-.2-.1-.1-.2-.4-.2-2v-6.2c0-.4.1-.5.1-.6.1-.1.4-.1 1.2-.1h2.7c.4 0 .8-.1 1.4-.1.4 0 .9 0 1.5.1h.3c1.5 0 2.4-.7 2.9-1.3.8-1.1.7-2.6.7-3v-42.7c.2-.7.2-1.7-.4-2.5-.6-1-1.7-1.4-3.2-1.4h-5.7c-.7 0-.9-.1-1-.1 0 0-.1-.2-.1-.6v-6.2c0-1.5.1-1.9.2-2 .2-.2 2-.2 2.6-.2h34c1.8 0 1.8 0 1.8 1.7v6.7c0 .8-.3.8-.4.8h-.5c-.7 0-1.4-.1-2.4-.1-.8 0-2 0-3.5.1-1.7.1-2.6.8-3 1.4-.5.7-.7 1.6-.5 2.5v43c-.1.5 0 1.6.7 2.6 1.1 1.7 7.7 1.5 8.3 1.4.3 0 .6 0 .9-.1.1 0 .4 0 .4.8v6.7c0 1.7 0 1.7-1.8 1.7l-34.4-.1zm-101.1-.2H83.1c-.5 0-.8 0-1-.1-.1-.3-.1-.8-.1-1.7v-6.7c0-.7 0-.8.9-.8h.2c7 0 8.6-1.9 8.9-3l.1-.2-.1-46.4-1.2-.2c-.1 0-.7-.1-1.7-.1-2 0-5.7.5-7.9 3.9-1.8 2.6-2.6 6-2.6 11.7 0 .5-.1.8-.2.8h-.2l-.2-.1h-8c-.1 0-.3 0-.3-.8v-24.2c0-.5 0-.8.2-1 .1-.1.5-.5 2-.5h59c1.6 0 2.3.2 2.3 2.7 0 4.6-.1 17.6-.1 20.8v1.3c0 .6.1 1.3-.1 1.5-.1.1-.4.1-1.2.1h-6.7c-.3 0-1 0-1.2-.1 0-.1-.1-.3-.1-.7-.2-5.7-.5-9.3-3.4-12.9-1.9-2.3-4.8-2.8-6.8-2.8-1.1 0-1.8.1-1.9.1l-1.2.2v1.3c0 1.7-.2 43-.1 45 0 .7.3 1.9 2.4 2.7 1.3.5 3.1.8 5.4.8h1.2c.2 0 .6 0 .9.1 0 .1.1.2.1.5-.1 3.3 0 4.5 0 6.1v2.4c-.1 0-.4.1-.7.1-1.1.2-2.6.2-4.1.2zM200.9 330.4c-7.6 0-11.3-1.1-14.1-4.2-3.9-4.3-4.9-15.5-4.8-18.2 0-1 .5-6.2-.2-7.3l-.1-.1c-.9-1.1-1.7-1.9-4.3-1.9h-7.1c-.7 0-1.2.3-1.7.8-.7.8-1.1 2.1-1 3.9 0 1.9.1 12.6.2 14.3.2 3.2 4.1 3.3 7.6 3.3.5 0 1.1 0 1.5.1h.1c.1.2.1 1.1.1 1.4v5.9c0 .9-.1 1.3-.1 1.4-.2.1-.7.1-1.1.1h-34.2c-.3 0-1 0-1.2-.1-.1-.4-.1-1.5-.1-1.9v-5.8c0-.8.1-1.1.1-1.2.1 0 .1 0 .2-.1h.6c6.4 0 8.5-.7 8.5-2.7v-43.9c0-3.7-4.8-3.7-6.8-3.7h-1.2c-.9 0-1.3-.1-1.4-.1v-1.3c.1-1.5 0-6.2 0-6.8.1-.5.4-1 1.4-1 2.7 0 6.8.1 12.4.1l24.6-.1c4.8 0 10.5.1 12.9.8 3.4 1.1 5.2 1.8 7.1 3.3 7.3 6 5.7 16 3.9 19.6-1.1 2.3-4.3 6.7-8 7.3l-4.6.8 4.2 2c4.9 2.4 5.4 5.7 5.9 9.1l.1.4c.2 1.2.2 1.9.1 3v1.3c0 1.7.1 3 .1 4v1c.1 5.9 3.7 7.3 5.7 7.8v7.9c-.9.4-2.4.7-5.3.8zm-30.1-59.2c-3.2 0-3.2 2.8-3.2 3.9v3.2c0 2.7 0 4.8-.1 7.7-.1 2.5 2.2 3 4.2 3 .8 0 1.5.1 2.1.1 4.2 0 6.1.2 8.4-1.6 1.7-1.3 2.8-3.6 3-6.3.3-3.1-.7-5.4-2.6-7.6-1.9-2.1-5-2.3-8.3-2.3l-3.5-.1z" class="st4"/></svg>